<mxfile host="65bd71144e">
    <diagram id="IpuX2UCYAA8gzxJryBx4" name="Page-1">
        <mxGraphModel dx="1086" dy="658" grid="1" gridSize="10" guides="1" tooltips="1" connect="1" arrows="1" fold="1" page="1" pageScale="1" pageWidth="850" pageHeight="1100" math="0" shadow="0">
            <root>
                <mxCell id="0"/>
                <mxCell id="1" parent="0"/>
                <mxCell id="7" value="" style="edgeStyle=none;html=1;entryX=0;entryY=0.5;entryDx=0;entryDy=0;" parent="1" source="5" target="31" edge="1">
                    <mxGeometry relative="1" as="geometry"/>
                </mxCell>
                <mxCell id="5" value="&lt;font style=&quot;font-size: 16px;&quot;&gt;&lt;b&gt;run.py&lt;/b&gt;&lt;/font&gt;&lt;div&gt;&lt;span style=&quot;color: rgb(63, 63, 63); background-color: transparent;&quot;&gt;&lt;span style=&quot;font-size: 16px;&quot;&gt;-&lt;b&gt;&amp;nbsp;&lt;/b&gt;&lt;/span&gt;Communicates with the init.py file to create the Flask app&lt;/span&gt;&lt;/div&gt;&lt;div&gt;&lt;span style=&quot;color: rgb(63, 63, 63); background-color: transparent;&quot;&gt;- Calls the opening of the index.html file.&lt;/span&gt;&lt;/div&gt;&lt;div&gt;&lt;span style=&quot;color: rgb(63, 63, 63); background-color: transparent;&quot;&gt;- Creates database for data storage.&amp;nbsp;&lt;/span&gt;&lt;/div&gt;" style="rounded=0;whiteSpace=wrap;html=1;" parent="1" vertex="1">
                    <mxGeometry x="10" y="20" width="170" height="130" as="geometry"/>
                </mxCell>
                <mxCell id="6" value="&lt;font style=&quot;font-size: 15px;&quot;&gt;&lt;b&gt;index.html&lt;/b&gt;&lt;/font&gt;&lt;div&gt;&lt;font&gt;- Site Initial page&lt;br&gt;- Retrieves display information from the Base.html file&lt;/font&gt;&lt;/div&gt;" style="rounded=0;whiteSpace=wrap;html=1;" parent="1" vertex="1">
                    <mxGeometry x="10" y="710" width="140" height="100" as="geometry"/>
                </mxCell>
                <mxCell id="8" value="&lt;b&gt;&lt;font style=&quot;font-size: 14px;&quot;&gt;Base.html&lt;/font&gt;&lt;/b&gt;&lt;div&gt;used to have all the needed HTML information for display&amp;nbsp;&lt;/div&gt;" style="rounded=0;whiteSpace=wrap;html=1;" parent="1" vertex="1">
                    <mxGeometry x="330" y="890" width="120" height="80" as="geometry"/>
                </mxCell>
                <mxCell id="10" value="&lt;font style=&quot;font-size: 16px;&quot;&gt;&lt;b&gt;Models.py&lt;/b&gt;&lt;/font&gt;&lt;div&gt;- The Database information will be placed here.&lt;/div&gt;&lt;div&gt;- information(name, email, password, goal, current fitness level, exercise availability, fitness assessment, and body measurements)&lt;/div&gt;" style="whiteSpace=wrap;html=1;aspect=fixed;" parent="1" vertex="1">
                    <mxGeometry x="470" y="110" width="150" height="150" as="geometry"/>
                </mxCell>
                <mxCell id="11" value="&lt;div&gt;&lt;font&gt;&lt;span style=&quot;font-size: 15px;&quot;&gt;&lt;b&gt;Register.html&lt;/b&gt;&lt;/span&gt;&lt;/font&gt;&lt;/div&gt;&lt;div&gt;&lt;font&gt;- Page for Account Registration&lt;br&gt;- Enter name, email, password, etc.&amp;nbsp;&lt;/font&gt;&lt;/div&gt;" style="rounded=0;whiteSpace=wrap;html=1;" parent="1" vertex="1">
                    <mxGeometry x="240" y="710" width="140" height="100" as="geometry"/>
                </mxCell>
                <mxCell id="12" value="&lt;font style=&quot;font-size: 15px;&quot;&gt;&lt;b&gt;Login.html&lt;/b&gt;&lt;/font&gt;&lt;div&gt;&lt;font&gt;- After Registration is complete, User can login to access the Dashboard.&amp;nbsp;&lt;/font&gt;&lt;/div&gt;" style="rounded=0;whiteSpace=wrap;html=1;" parent="1" vertex="1">
                    <mxGeometry x="440" y="710" width="140" height="100" as="geometry"/>
                </mxCell>
                <mxCell id="13" value="&lt;font style=&quot;font-size: 15px;&quot;&gt;&lt;b&gt;Dashboard.html&lt;/b&gt;&lt;/font&gt;&lt;div&gt;&lt;font&gt;- Successful Login is required&lt;br&gt;- Displays user tailored information.&amp;nbsp;&lt;/font&gt;&lt;/div&gt;" style="rounded=0;whiteSpace=wrap;html=1;" parent="1" vertex="1">
                    <mxGeometry x="640" y="710" width="140" height="100" as="geometry"/>
                </mxCell>
                <mxCell id="36" style="edgeStyle=none;html=1;entryX=0;entryY=0.5;entryDx=0;entryDy=0;exitX=1;exitY=0;exitDx=0;exitDy=0;" parent="1" source="28" target="10" edge="1">
                    <mxGeometry relative="1" as="geometry">
                        <mxPoint x="270" y="260" as="sourcePoint"/>
                    </mxGeometry>
                </mxCell>
                <mxCell id="40" style="edgeStyle=none;html=1;exitX=1;exitY=0.25;exitDx=0;exitDy=0;entryX=0;entryY=0.5;entryDx=0;entryDy=0;" parent="1" source="28" target="38" edge="1">
                    <mxGeometry relative="1" as="geometry"/>
                </mxCell>
                <mxCell id="28" value="&lt;font style=&quot;font-size: 16px;&quot;&gt;&lt;b&gt;Routes.py&lt;/b&gt;&lt;/font&gt;&lt;div&gt;- Gives the appropriate page back to init for user display on website.&lt;/div&gt;&lt;div&gt;- Inform how the site pages are able to navigate with each other.&amp;nbsp;&amp;nbsp;&lt;/div&gt;&lt;div&gt;&lt;span style=&quot;color: rgb(63, 63, 63); background-color: transparent;&quot;&gt;- Information on&amp;nbsp; the type of methods are allowed in each site.&amp;nbsp;&lt;/span&gt;&lt;/div&gt;" style="whiteSpace=wrap;html=1;aspect=fixed;" parent="1" vertex="1">
                    <mxGeometry x="130" y="240" width="150" height="150" as="geometry"/>
                </mxCell>
                <mxCell id="31" value="&lt;b&gt;&lt;font style=&quot;font-size: 14px;&quot;&gt;Init.py&lt;/font&gt;&lt;/b&gt;&lt;div&gt;Starts the flask app&lt;/div&gt;" style="rounded=0;whiteSpace=wrap;html=1;" parent="1" vertex="1">
                    <mxGeometry x="260" y="45" width="120" height="80" as="geometry"/>
                </mxCell>
                <mxCell id="38" value="&lt;font style=&quot;font-size: 16px;&quot;&gt;&lt;b&gt;Forms.py&lt;/b&gt;&lt;/font&gt;&lt;div&gt;-Contains the forms that will need to be filled from the user in the HTML sites.&amp;nbsp;&lt;/div&gt;&lt;div&gt;- Also contains an email and password checker.&lt;/div&gt;" style="whiteSpace=wrap;html=1;aspect=fixed;" parent="1" vertex="1">
                    <mxGeometry x="470" y="290" width="150" height="150" as="geometry"/>
                </mxCell>
                <mxCell id="41" value="" style="endArrow=classic;startArrow=classic;html=1;entryX=0;entryY=0.25;entryDx=0;entryDy=0;exitX=1;exitY=1;exitDx=0;exitDy=0;" parent="1" source="6" target="8" edge="1">
                    <mxGeometry width="50" height="50" relative="1" as="geometry">
                        <mxPoint x="250" y="820" as="sourcePoint"/>
                        <mxPoint x="160" y="990" as="targetPoint"/>
                        <Array as="points"/>
                    </mxGeometry>
                </mxCell>
                <mxCell id="43" value="" style="endArrow=classic;startArrow=classic;html=1;exitX=0.25;exitY=0;exitDx=0;exitDy=0;entryX=0.75;entryY=1;entryDx=0;entryDy=0;" parent="1" source="8" target="11" edge="1">
                    <mxGeometry width="50" height="50" relative="1" as="geometry">
                        <mxPoint x="520" y="930" as="sourcePoint"/>
                        <mxPoint x="560" y="880" as="targetPoint"/>
                    </mxGeometry>
                </mxCell>
                <mxCell id="44" value="" style="endArrow=classic;startArrow=classic;html=1;exitX=1;exitY=0;exitDx=0;exitDy=0;entryX=0.25;entryY=1;entryDx=0;entryDy=0;" parent="1" source="8" target="12" edge="1">
                    <mxGeometry width="50" height="50" relative="1" as="geometry">
                        <mxPoint x="520" y="820" as="sourcePoint"/>
                        <mxPoint x="570" y="770" as="targetPoint"/>
                    </mxGeometry>
                </mxCell>
                <mxCell id="45" value="" style="endArrow=classic;startArrow=classic;html=1;exitX=1;exitY=0.25;exitDx=0;exitDy=0;entryX=0;entryY=1;entryDx=0;entryDy=0;" parent="1" source="8" target="13" edge="1">
                    <mxGeometry width="50" height="50" relative="1" as="geometry">
                        <mxPoint x="460" y="900" as="sourcePoint"/>
                        <mxPoint x="485" y="820" as="targetPoint"/>
                    </mxGeometry>
                </mxCell>
                <mxCell id="46" value="" style="endArrow=classic;startArrow=classic;html=1;exitX=0;exitY=0.5;exitDx=0;exitDy=0;entryX=1;entryY=0.5;entryDx=0;entryDy=0;" parent="1" source="13" target="12" edge="1">
                    <mxGeometry width="50" height="50" relative="1" as="geometry">
                        <mxPoint x="470" y="910" as="sourcePoint"/>
                        <mxPoint x="495" y="830" as="targetPoint"/>
                    </mxGeometry>
                </mxCell>
                <mxCell id="47" value="" style="endArrow=classic;startArrow=classic;html=1;exitX=0;exitY=0.5;exitDx=0;exitDy=0;entryX=1;entryY=0.5;entryDx=0;entryDy=0;" parent="1" source="12" target="11" edge="1">
                    <mxGeometry width="50" height="50" relative="1" as="geometry">
                        <mxPoint x="480" y="920" as="sourcePoint"/>
                        <mxPoint x="505" y="840" as="targetPoint"/>
                    </mxGeometry>
                </mxCell>
                <mxCell id="48" value="" style="endArrow=classic;startArrow=classic;html=1;exitX=1;exitY=0.5;exitDx=0;exitDy=0;entryX=0;entryY=0.5;entryDx=0;entryDy=0;" parent="1" source="6" target="11" edge="1">
                    <mxGeometry width="50" height="50" relative="1" as="geometry">
                        <mxPoint x="490" y="930" as="sourcePoint"/>
                        <mxPoint x="515" y="850" as="targetPoint"/>
                    </mxGeometry>
                </mxCell>
                <mxCell id="49" value="" style="endArrow=classic;startArrow=classic;html=1;exitX=1;exitY=0.5;exitDx=0;exitDy=0;entryX=0;entryY=0;entryDx=0;entryDy=0;" parent="1" source="31" target="10" edge="1">
                    <mxGeometry width="50" height="50" relative="1" as="geometry">
                        <mxPoint x="500" y="420" as="sourcePoint"/>
                        <mxPoint x="525" y="340" as="targetPoint"/>
                    </mxGeometry>
                </mxCell>
                <mxCell id="50" value="" style="endArrow=classic;startArrow=classic;html=1;exitX=0.5;exitY=0;exitDx=0;exitDy=0;entryX=0;entryY=1;entryDx=0;entryDy=0;" parent="1" source="28" target="31" edge="1">
                    <mxGeometry width="50" height="50" relative="1" as="geometry">
                        <mxPoint x="390" y="190" as="sourcePoint"/>
                        <mxPoint x="480" y="215" as="targetPoint"/>
                    </mxGeometry>
                </mxCell>
                <mxCell id="51" value="" style="endArrow=classic;startArrow=classic;html=1;exitX=0.5;exitY=0;exitDx=0;exitDy=0;entryX=0.5;entryY=1;entryDx=0;entryDy=0;" parent="1" source="6" target="28" edge="1">
                    <mxGeometry width="50" height="50" relative="1" as="geometry">
                        <mxPoint x="215" y="595" as="sourcePoint"/>
                        <mxPoint x="270" y="480" as="targetPoint"/>
                    </mxGeometry>
                </mxCell>
                <mxCell id="52" value="" style="endArrow=classic;startArrow=classic;html=1;exitX=0.25;exitY=0;exitDx=0;exitDy=0;entryX=0.5;entryY=1;entryDx=0;entryDy=0;" parent="1" source="11" target="28" edge="1">
                    <mxGeometry width="50" height="50" relative="1" as="geometry">
                        <mxPoint x="90" y="720" as="sourcePoint"/>
                        <mxPoint x="178" y="400" as="targetPoint"/>
                    </mxGeometry>
                </mxCell>
                <mxCell id="53" value="" style="endArrow=classic;startArrow=classic;html=1;exitX=0.5;exitY=0;exitDx=0;exitDy=0;entryX=0.5;entryY=1;entryDx=0;entryDy=0;" parent="1" source="12" target="28" edge="1">
                    <mxGeometry width="50" height="50" relative="1" as="geometry">
                        <mxPoint x="285" y="720" as="sourcePoint"/>
                        <mxPoint x="178" y="400" as="targetPoint"/>
                    </mxGeometry>
                </mxCell>
                <mxCell id="54" value="" style="endArrow=classic;startArrow=classic;html=1;exitX=0.5;exitY=0;exitDx=0;exitDy=0;entryX=0.5;entryY=1;entryDx=0;entryDy=0;" parent="1" source="13" target="28" edge="1">
                    <mxGeometry width="50" height="50" relative="1" as="geometry">
                        <mxPoint x="520" y="720" as="sourcePoint"/>
                        <mxPoint x="215" y="400" as="targetPoint"/>
                    </mxGeometry>
                </mxCell>
            </root>
        </mxGraphModel>
    </diagram>
</mxfile>